<?xml version="1.0" encoding="utf-8"?>
<!-- Generator: Adobe Illustrator 26.0.3, SVG Export Plug-In . SVG Version: 6.00 Build 0)  -->
<svg version="1.1" id="Layer_1" xmlns="http://www.w3.org/2000/svg" xmlns:xlink="http://www.w3.org/1999/xlink" x="0px" y="0px"
	 viewBox="0 0 39 38" style="enable-background:new 0 0 39 38;" xml:space="preserve">
<style type="text/css">
	.st0{fill:#002169;}
</style>
<path class="st0" d="M0.2,18.2c0.1-4.1,1.7-8.4,5.1-12c2.6-2.8,5.8-4.6,9.5-5.6c4.2-1.1,8.4-0.7,12.3,1c3.4,1.4,6.1,3.6,8.2,6.6
	c2.5,3.6,3.6,7.5,3.4,11.8c-0.2,4-1.6,7.7-4.2,10.8c-3.1,3.7-7,5.9-11.7,6.8c-4.2,0.8-8.2,0.2-11.9-1.7c-5.1-2.6-8.6-6.6-10-12.2
	C0.4,22.1,0.2,20.5,0.2,18.2z M19.1,36.5c1-0.1,2-0.1,3-0.3c6.7-0.9,12.3-5.5,14.4-11.9c2-6.3,0.8-12.1-3.6-17
	c-4.3-4.7-9.7-6.6-16.1-5.7C11.7,2.3,7.6,4.8,4.7,9.1c-2.6,3.7-3.5,7.8-2.9,12.3c0.9,5.7,3.9,10.1,9,12.9
	C13.3,35.7,16.1,36.4,19.1,36.5z"/>
<path class="st0" d="M25.9,6.9c0,1.3,0,2.5,0,3.8c-0.3,0-0.6,0-0.9,0c-0.7,0-1.4,0-2.1,0.1c-0.9,0.1-1.4,0.6-1.5,1.5
	c-0.1,1.1,0,2.1,0,3.2c1.4,0.1,2.8,0,4.3,0.1c-0.2,1.4-0.4,2.8-0.6,4.3c-1.2,0-2.5,0-3.7,0c0,3.7,0,7.4,0,11
	C21,31.1,18.2,31.1,17,31c0-0.2,0-0.5,0-0.7c0-3.1,0-6.3,0-9.4c0-0.3,0-0.5,0-0.9c-1.3,0-2.5,0-3.7,0c-0.1-0.5-0.2-3.7,0-4.3
	c1.2,0,2.4,0,3.7,0c0-0.3,0-0.5,0-0.7c0-1,0-2,0-3c0.1-1.5,0.6-2.9,1.7-3.9c0.8-0.7,1.8-1.1,2.9-1.2C23,6.7,24.4,6.8,25.9,6.9z"/>
</svg>
