<?xml version="1.0" encoding="utf-8"?>
<!-- Generator: Adobe Illustrator 26.0.3, SVG Export Plug-In . SVG Version: 6.00 Build 0)  -->
<svg version="1.1" id="Layer_1" xmlns="http://www.w3.org/2000/svg" xmlns:xlink="http://www.w3.org/1999/xlink" x="0px" y="0px"
	 viewBox="0 0 39 38" style="enable-background:new 0 0 39 38;" xml:space="preserve">
<style type="text/css">
	.st0{fill:#002169;}
</style>
<path class="st0" d="M19.8,38c-3.5-0.1-6.6-0.8-9.6-2.5c-2.3-1.3-4.3-3-5.9-5.1c-2.3-2.9-3.5-6.2-3.8-9.9c-0.4-5,1-9.5,4.2-13.4
	c2.9-3.6,6.6-5.8,11.2-6.7c6.1-1.2,11.5,0.2,16.3,4.1c2.6,2.2,4.6,4.8,5.7,8.1c1.3,3.7,1.5,7.4,0.5,11.1c-1.3,4.8-4.1,8.5-8.2,11.2
	C26.9,37,23.4,37.9,19.8,38z M19.3,36.6c0.4,0,0.7,0,1.1,0c5.2-0.3,9.6-2.3,13-6.2c3.4-4,4.8-8.6,4-13.8c-0.6-4.4-2.7-8.1-6.2-11
	C26.7,2,21.6,0.7,16,1.8C11.3,2.7,7.6,5.2,4.9,9.1C2.2,13,1.3,17.2,2,21.9c0.7,4.4,2.8,7.9,6.3,10.7C11.5,35.2,15.2,36.5,19.3,36.6z
	"/>
<path class="st0" d="M19.7,30.5c-1.7,0-3.5-0.1-5.2-0.1c-1.2,0-2.4-0.3-3.5-1c-1.6-1-2.5-2.5-2.8-4.4C8.1,23.8,8,22.7,8,21.5
	c0-2.5,0-4.9,0.1-7.4c0-1.3,0.3-2.5,1.1-3.6c1.1-1.6,2.6-2.5,4.4-2.7c1.4-0.2,2.8-0.2,4.2-0.2c2.1,0,4.2,0,6.3,0
	c0.9,0,1.8,0.1,2.6,0.4c2.4,0.7,3.8,2.3,4.3,4.7c0.3,1.3,0.3,2.7,0.3,4c0,2.2,0,4.4,0,6.7c0,1-0.1,2-0.4,2.9c-0.7,2.1-2.2,3.4-4.4,4
	c-1.1,0.3-2.3,0.3-3.5,0.3C21.9,30.5,20.8,30.5,19.7,30.5C19.7,30.5,19.7,30.5,19.7,30.5z M10.1,19C10.1,19,10.1,19,10.1,19
	c0,1.1,0,2.2,0.1,3.2c0,0.9,0.1,1.8,0.2,2.6c0.3,1.7,1.2,2.8,2.9,3.2c0.8,0.2,1.6,0.3,2.4,0.3c2.6,0,5.2,0,7.8,0
	c0.8,0,1.6-0.1,2.4-0.2c1.6-0.3,2.7-1.3,3.1-3c0.1-0.5,0.2-1,0.2-1.5c0-1,0.1-2.1,0.1-3.1c0-2.1,0-4.3-0.1-6.4c0-0.4-0.1-0.7-0.1-1
	c-0.4-1.9-1.7-3.1-3.7-3.3c-3.5-0.3-7.1-0.2-10.7-0.1c-0.7,0-1.3,0.2-1.9,0.4c-1,0.4-1.8,1.1-2.1,2.2c-0.2,0.6-0.3,1.3-0.4,2
	C10.1,15.9,10.1,17.4,10.1,19z"/>
<path class="st0" d="M25.7,19c0,3.3-2.8,5.9-6.1,5.9c-3.3-0.1-5.9-2.7-5.9-6c0-3.2,2.8-5.9,6.1-5.9C23.2,13.2,25.7,15.9,25.7,19z
	 M23.5,19.1c0-2.2-1.7-3.9-4-3.9c-2,0-3.8,1.5-3.8,3.8c0,2.1,1.7,3.8,3.9,3.9C21.8,22.9,23.5,21.2,23.5,19.1z"/>
<path class="st0" d="M25.9,14.3c-0.8,0-1.4-0.6-1.4-1.4c0-0.8,0.6-1.4,1.4-1.4c0.8,0,1.4,0.6,1.4,1.4C27.3,13.6,26.7,14.3,25.9,14.3
	z"/>
</svg>
