<?xml version="1.0" encoding="utf-8"?>
<!-- Generator: Adobe Illustrator 26.0.3, SVG Export Plug-In . SVG Version: 6.00 Build 0)  -->
<svg version="1.1" id="Layer_1" xmlns="http://www.w3.org/2000/svg" xmlns:xlink="http://www.w3.org/1999/xlink" x="0px" y="0px"
	 viewBox="0 0 431 118.5" style="enable-background:new 0 0 431 118.5;" xml:space="preserve">
<style type="text/css">
	.st0{fill:#FFFFFF;}
</style>
<polygon class="st0" points="3.6,108.1 3.6,40.6 3.5,32 30.3,32 39.9,72.9 40.5,72.9 49.5,32 76.3,32 76.2,40.6 76.2,108.1 
	76.3,116.7 57.1,116.7 57.2,108.1 57.2,72.9 56.6,72.9 46.4,116.7 33.4,116.7 23.2,72.9 22.6,72.9 22.6,108.1 22.7,116.7 3.5,116.7 
	"/>
<path class="st0" d="M139.1,116.7h-22l-1.5-8.7h-15.2l-1.4,8.7H78.1L96.9,32h23.2L139.1,116.7z M103.1,91.1h9.6l-4.5-28.5h-0.6
	L103.1,91.1z"/>
<polygon class="st0" points="140.9,108.1 140.9,40.6 140.8,32 158.3,32 173.7,69.8 174.3,69.8 174.3,41.7 174.2,32 193.6,32 
	193.5,40.6 193.5,108.1 193.6,116.7 176,116.7 160.7,79 160.1,79 160.1,107 160.2,116.7 140.8,116.7 "/>
<path class="st0" d="M246.9,67.5v-5.9c0-8.2,0-12.6-4.9-12.6c-4.9,0-4.9,4.4-4.9,12.6v25.5c0,8.2,0,12.6,4.9,12.6
	c4.9,0,4.9-4.4,4.9-12.6v-6.5H268V83c0,16.8-0.5,35.6-26,35.6c-25.5,0-26-20.5-26-35.9V66c0-15.3,0.5-35.8,26-35.8
	c25.5,0,26,18.6,26,35.3v2H246.9z"/>
<path class="st0" d="M327.6,116.7h-22.1l-1.5-8.7h-15.2l-1.4,8.7h-20.9L285.4,32h23.2L327.6,116.7z M291.6,91.1h9.6l-4.5-28.5h-0.6
	L291.6,91.1z"/>
<path class="st0" d="M381.1,53.8c0,11.5-4.4,15.4-11,18.5v0.2c6.6,1.7,11,8.9,11,18.6v11.4c0,5.3,0,8.8,1.7,12.3v1.9h-20.2
	c-1.7-1.9-2.1-5.8-2.1-9.5V91.6c0-6.9-1.8-9.7-7.4-9.7h-2.6v26.2l0.1,8.7h-21.3l0.1-8.7V40.6l-0.1-8.7h30c14.8,0,21.8,7.6,21.8,21.2
	V53.8z M350.5,65.6h3.4c4.5,0,6.4-2.4,6.4-7.8v-1.2c0-5.5-1.9-7.5-6.4-7.5h-3.4V65.6z"/>
<polygon class="st0" points="408.7,82.8 408.7,98 431,98 431,116.7 387.5,116.7 387.6,108.1 387.6,40.6 387.5,32 430.7,32 
	430.7,50.7 408.7,50.7 408.7,65.4 428.4,65.4 428.4,82.8 "/>
<path class="st0" d="M42.6,5.9c0-4.8-4.5-5.9-8.3-5.9H24v21.5h4.8v-9.6H31l7.2,9.6h6l-7.7-9.7C39.4,11.4,42.6,10.1,42.6,5.9
	 M28.7,9.1V2.6h4.8c4.5,0,4.5,2.6,4.5,3.5c0,1.4-1,3-3.3,3H28.7z"/>
<path class="st0" d="M57.7,0h-3.8c-2.7,0-9,0.6-9,6.5V15c0,5.9,6.3,6.5,9,6.5h3.8c2.7,0,9-0.6,9-6.5V6.5C66.7,0.6,60.4,0,57.7,0
	 M62,8.4v4.8v2c0,4.3-4.6,4.4-4.8,4.4h-2.9c-0.2,0-4.8,0-4.8-4.4V6.4c0-4.3,4.6-4.4,4.8-4.4h2.9C57.5,2,62,2.1,62,6.4V8.4z"/>
<path class="st0" d="M2,3.1l0.3,0C4,2.8,7.5,2.7,9.1,2.7v18.8h4.7V2.7c1.7,0,5.1,0.1,6.9,0.4l0.3,0V0H2V3.1z"/>
<path class="st0" d="M70.4,2.3L73,2.4v12.7c0,4.3-4.6,4.4-4.8,4.4h-0.4l-0.5,2h1.4c2.7,0,9-0.6,9-6.5V0h-8.3L70.4,2.3z"/>
<path class="st0" d="M88.2,0l-9.3,21.5h3.7l2.6-6H94l2.8,6h4.7L91.4,0H88.2z M86.4,12.6l3.1-7.1l3.3,7.1H86.4z"/>
<polygon class="st0" points="122.3,0 122.3,0 119.1,0 119.1,0.8 119.1,13.2 106.7,0 106.7,0 103.7,0 103.7,21.5 106.9,21.5 
	106.9,21.5 106.9,8.2 107.6,9 119.1,21.5 122.3,21.5 "/>
</svg>
