<?xml version="1.0" encoding="utf-8"?>
<!-- Generator: Adobe Illustrator 26.0.3, SVG Export Plug-In . SVG Version: 6.00 Build 0)  -->
<svg version="1.1" id="art" xmlns="http://www.w3.org/2000/svg" xmlns:xlink="http://www.w3.org/1999/xlink" x="0px" y="0px"
	 viewBox="0 0 454.3 169.6" style="enable-background:new 0 0 454.3 169.6;" xml:space="preserve">
<style type="text/css">
	.st0{fill:#FFFFFF;}
</style>
<g>
	<g>
		<path class="st0" d="M4,111.3V43.8l-0.1-8.7h26.8l9.6,40.9h0.6l9-40.9h26.8l-0.1,8.7v67.5l0.1,8.7H57.5l0.1-8.7V76.1H57
			l-10.2,43.9h-13L23.6,76.1H23v35.2l0.1,8.7H3.9L4,111.3z"/>
		<path class="st0" d="M139.5,119.9h-22.1l-1.5-8.7h-15.2l-1.4,8.7H78.5l18.8-84.8h23.2L139.5,119.9z M103.5,94.3h9.6l-4.5-28.5H108
			L103.5,94.3z"/>
		<path class="st0" d="M141.3,111.3V43.8l-0.1-8.7h17.5L174.2,73h0.6V44.9l-0.1-9.7h19.4l-0.1,8.7v67.5l0.1,8.7h-17.7l-15.3-37.7
			h-0.6v28l0.1,9.7h-19.4L141.3,111.3z"/>
		<path class="st0" d="M247.3,70.7v-5.9c0-8.2,0-12.6-4.9-12.6c-4.9,0-4.9,4.4-4.9,12.6v25.5c0,8.2,0,12.6,4.9,12.6
			c4.9,0,4.9-4.4,4.9-12.6v-6.5h21.1v2.4c0,16.8-0.5,35.6-26,35.6c-25.5,0-26-20.5-26-35.9V69.2c0-15.3,0.5-35.8,26-35.8
			c25.5,0,26,18.6,26,35.3v2H247.3z"/>
		<path class="st0" d="M328,119.9H306l-1.5-8.7h-15.2l-1.4,8.7H267l18.8-84.8h23.2L328,119.9z M292,94.3h9.6l-4.5-28.5h-0.6
			L292,94.3z"/>
		<path class="st0" d="M381.5,57c0,11.5-4.4,15.4-11,18.5v0.2c6.6,1.7,11,8.9,11,18.6v11.4c0,5.3,0,8.8,1.7,12.3v1.9H363
			c-1.7-1.9-2.1-5.8-2.1-9.5V94.8c0-6.9-1.8-9.7-7.4-9.7h-2.6v26.2l0.1,8.7h-21.3l0.1-8.7V43.8l-0.1-8.7h30
			c14.8,0,21.8,7.6,21.8,21.2V57z M350.9,68.8h3.4c4.5,0,6.4-2.4,6.4-7.8v-1.2c0-5.5-1.9-7.5-6.4-7.5h-3.4V68.8z"/>
		<path class="st0" d="M409.1,86v15.2h22.3v18.7h-43.5l0.1-8.7V43.8l-0.1-8.7h43.3v18.7h-22.1v14.7h19.7V86H409.1z"/>
		<path class="st0" d="M14.4,152.9v11.8l0.1,4.1H4.3l0.1-4.1v-32.1l-0.1-4.1h20.3v8.9H14.4v7h9.1v8.5H14.4z"/>
		<path class="st0" d="M38.4,169.6c-12.1,0-12.3-9.8-12.3-17v-8.2c0-7.4,0.2-16.8,12.3-16.8c12.1,0,12.4,8.9,12.4,17.1v7.9
			C50.7,160.7,50.5,169.6,38.4,169.6z M36.1,154.7c0,3.9,0,6,2.3,6c2.4,0,2.4-2.1,2.4-6v-12.1c0-3.9,0-6-2.4-6c-2.3,0-2.3,2.1-2.3,6
			V154.7z"/>
		<path class="st0" d="M78.4,138.9c0,5.5-2.1,7.3-5.2,8.8v0.1c3.2,0.8,5.2,4.2,5.2,8.9v5.4c0,2.5,0,4.2,0.8,5.9v0.9h-9.6
			c-0.8-0.9-1-2.8-1-4.5v-7.4c0-3.3-0.8-4.6-3.5-4.6h-1.2v12.5l0.1,4.1H53.8l0.1-4.1v-32.1l-0.1-4.1h14.3c7,0,10.4,3.6,10.4,10.1
			V138.9z M63.9,144.5h1.6c2.1,0,3-1.1,3-3.7v-0.6c0-2.6-0.9-3.6-3-3.6h-1.6V144.5z"/>
		<path class="st0" d="M94.4,164.7v-9.9l-9.1-26.3H96l2.4,7.8l1.3,5.4h0.3l1.2-5.4l2.4-7.8h10.1l-9.2,26.3v9.9l0.1,4.1H94.3
			L94.4,164.7z"/>
		<path class="st0" d="M125,169.6c-12.1,0-12.3-9.8-12.3-17v-8.2c0-7.4,0.2-16.8,12.3-16.8c12.1,0,12.4,8.9,12.4,17.1v7.9
			C137.4,160.7,137.1,169.6,125,169.6z M122.7,154.7c0,3.9,0,6,2.3,6c2.4,0,2.4-2.1,2.4-6v-12.1c0-3.9,0-6-2.4-6
			c-2.3,0-2.3,2.1-2.3,6V154.7z"/>
		<path class="st0" d="M164.7,128.5l-0.1,4.1v25c0,7.6-4.2,12-12.1,12c-8,0-12.3-4.5-12.3-12v-25l-0.1-4.1h10.2l-0.1,4.1v24.2
			c0,2.3,0.6,3.5,2.3,3.5c1.8,0,2.3-1.2,2.3-3.5v-24.2l-0.1-4.1H164.7z"/>
		<path class="st0" d="M193,138.9c0,5.5-2.1,7.3-5.2,8.8v0.1c3.2,0.8,5.2,4.2,5.2,8.9v5.4c0,2.5,0,4.2,0.8,5.9v0.9h-9.6
			c-0.8-0.9-1-2.8-1-4.5v-7.4c0-3.3-0.8-4.6-3.5-4.6h-1.2v12.5l0.1,4.1h-10.2l0.1-4.1v-32.1l-0.1-4.1h14.3c7,0,10.4,3.6,10.4,10.1
			V138.9z M178.5,144.5h1.6c2.1,0,3-1.1,3-3.7v-0.6c0-2.6-0.9-3.6-3-3.6h-1.6V144.5z"/>
		<path class="st0" d="M203.9,164.7v-32.1l-0.1-4.1h12.7l4.6,19.5h0.3l4.3-19.5h12.7l-0.1,4.1v32.1l0.1,4.1h-9.1l0.1-4.1v-16.7h-0.3
			l-4.8,20.9H218l-4.8-20.9h-0.3v16.7l0.1,4.1h-9.1L203.9,164.7z"/>
		<path class="st0" d="M268.3,168.8h-10.5l-0.7-4.1h-7.2l-0.7,4.1h-9.9l9-40.3h11.1L268.3,168.8z M251.2,156.6h4.6l-2.1-13.5h-0.3
			L251.2,156.6z"/>
		<path class="st0" d="M269.2,164.7v-32.1l-0.1-4.1h8.3l7.3,18h0.3v-13.4l-0.1-4.6h9.2l-0.1,4.1v32.1l0.1,4.1h-8.4l-7.3-17.9h-0.3
			v13.3l0.1,4.6h-9.2L269.2,164.7z"/>
		<path class="st0" d="M330.2,142.7c0,7.1-3.7,10.9-10.7,10.9h-3.9v11l0.1,4.1h-10.2l0.1-4.1v-32.1l-0.1-4.1h14
			c6.9,0,10.7,3.5,10.7,10.6V142.7z M315.7,145.4h1.6c2.1,0,3-1.1,3-3.7v-1.6c0-2.6-1-3.5-3-3.5h-1.6V145.4z"/>
		<path class="st0" d="M356.4,168.8h-10.5l-0.7-4.1H338l-0.7,4.1h-9.9l9-40.3h11.1L356.4,168.8z M339.3,156.6h4.6l-2.1-13.5h-0.3
			L339.3,156.6z"/>
		<path class="st0" d="M381.8,138.9c0,5.5-2.1,7.3-5.2,8.8v0.1c3.2,0.8,5.2,4.2,5.2,8.9v5.4c0,2.5,0,4.2,0.8,5.9v0.9H373
			c-0.8-0.9-1-2.8-1-4.5v-7.4c0-3.3-0.8-4.6-3.5-4.6h-1.2v12.5l0.1,4.1h-10.2l0.1-4.1v-32.1l-0.1-4.1h14.3c7,0,10.4,3.6,10.4,10.1
			V138.9z M367.3,144.5h1.6c2.1,0,3-1.1,3-3.7v-0.6c0-2.6-0.9-3.6-3-3.6h-1.6V144.5z"/>
		<path class="st0" d="M399.8,137.5v27.2l0.1,4.1h-10.2l0.1-4.1v-27.2h-7.4v-9h24.9v9H399.8z"/>
		<path class="st0" d="M415.6,154.3v2c0,3.6,1.5,5.5,4.1,5.5c2.2,0,3.3-1.4,3.3-3.3c0-2.4-1.6-3.9-5.2-6.1l-3.4-2.1
			c-4.9-3-6.9-5.9-6.9-10.7c0-7.7,5.1-11.9,12.5-11.9c6.8,0,12.4,3.7,12.4,12.6v1.5h-8.7v-1c0-3.6-1.4-5.2-3.7-5.2
			c-1.9,0-3,1.1-3,2.9c0,1.9,1.3,2.9,4.8,5.1l3.4,2.1c6.4,3.9,8,8.1,8,12.3c0,7.2-4.7,11.7-12.7,11.7c-7.2,0-13.7-3.6-13.7-12.8
			v-2.5H415.6z"/>
	</g>
	<g>
		<g>
			<g>
				<g id="XMLID_1_">
					<g id="XMLID_2_">
						<g id="XMLID_3_">
							<path id="XMLID_13_" class="st0" d="M43,9c0-4.8-4.5-5.9-8.3-5.9H24.4v21.5h4.8v-9.6h2.2l7.2,9.6h6L36.9,15
								C39.8,14.6,43,13.3,43,9z M29.2,12.3V5.8H34c4.5,0,4.5,2.6,4.5,3.5c0,1.4-1,3-3.3,3H29.2z"/>
							<path id="XMLID_10_" class="st0" d="M58.1,3.2h-3.8c-2.7,0-9,0.6-9,6.5v8.5c0,5.9,6.3,6.5,9,6.5h3.8c2.7,0,9-0.6,9-6.5V9.7
								C67.1,3.8,60.8,3.2,58.1,3.2z M62.4,11.5v4.8v2c0,4.3-4.6,4.4-4.8,4.4h-2.9c-0.2,0-4.8,0-4.8-4.4V9.6c0-4.3,4.6-4.4,4.8-4.4
								h2.9c0.2,0,4.8,0,4.8,4.4V11.5z"/>
							<path id="XMLID_9_" class="st0" d="M2.4,6.3l0.3,0C4.4,6,7.9,5.9,9.6,5.9v18.8h4.7V5.9c1.7,0,5.1,0.1,6.9,0.4l0.3,0V3.2h-19
								V6.3z"/>
							<path id="XMLID_8_" class="st0" d="M70.8,5.4l2.6,0.2v12.7c0,4.3-4.6,4.4-4.8,4.4h-0.4l-0.5,2H69c2.7,0,9-0.6,9-6.5v-15h-8.3
								L70.8,5.4z"/>
							<path id="XMLID_5_" class="st0" d="M88.7,3.2l-9.3,21.5H83l2.6-6h8.8l2.8,6h4.7l-10-21.5H88.7z M86.8,15.8l3.1-7.1l3.3,7.1
								H86.8z"/>
							<polygon id="XMLID_4_" class="st0" points="122.7,3.2 122.7,3.2 119.5,3.2 119.5,3.2 119.5,4 119.5,16.4 107.1,3.2 
								107.1,3.2 104.1,3.2 104.1,24.7 107.3,24.7 107.3,24.7 107.3,11.4 108,12.1 119.5,24.7 122.7,24.7 122.7,24.7 							"/>
						</g>
					</g>
				</g>
			</g>
		</g>
	</g>
	<g>
		<path class="st0" d="M437.2,130.4H435v-1.8h6.4v1.8h-2.2v5.6h-2V130.4z"/>
		<path class="st0" d="M442.4,128.6h2.1l1.7,2.8l1.7-2.8h2.1v7.3h-2v-4.2l-1.9,2.9h0l-1.9-2.8v4.2h-2V128.6z"/>
	</g>
</g>
</svg>
