<?xml version="1.0" encoding="utf-8"?>
<!-- Generator: Adobe Illustrator 26.0.3, SVG Export Plug-In . SVG Version: 6.00 Build 0)  -->
<svg version="1.1" xmlns="http://www.w3.org/2000/svg" xmlns:xlink="http://www.w3.org/1999/xlink" x="0px" y="0px"
	 viewBox="0 0 100 100" style="enable-background:new 0 0 100 100;" xml:space="preserve">
<style type="text/css">
	.st0{fill:#0B2742;}
	.st1{display:none;}
	.st2{display:inline;fill:#0B2742;}
</style>
<g id="paranben-free">
	<path class="st0" d="M97.7,31.1l-0.5-4l-4-0.5c-2.6-0.3-5.1-0.4-7.6-0.4c-6.2,0-11.9,1-16.9,2.9c-2.9-7-8.3-13.7-15.8-19.7L49.8,7
		l-3.2,2.5c-7.5,6-12.9,12.7-15.8,19.7c-5-2-10.6-2.9-16.9-2.9c-2.4,0-5,0.2-7.6,0.4l-4,0.5l-0.5,4C0.1,46.5,3.6,59,11.9,67.3
		c6.8,6.8,16.7,10.4,28.6,10.4c1.2,0,2.4,0,3.7-0.1l4.2-0.2l-0.3,17.7h3.3l-0.3-17.7l4.2,0.2c1.2,0.1,2.5,0.1,3.6,0.1
		c11.9,0,21.8-3.6,28.6-10.4C96,59,99.5,46.5,97.7,31.1z M49.8,13.5c8,6.4,13.2,13.4,15.4,20.7l0.3,1c0.6,2.5,0.9,4.7,0.9,7
		c0,2.2-0.3,4.4-0.9,6.6c0,0.2-0.1,0.3-0.1,0.5c-0.6,2.1-1.4,4.2-2.5,6.3c-0.1,0.2-0.2,0.4-0.3,0.5c-1.1,2.1-2.5,4.1-4,6
		c-0.2,0.2-0.3,0.4-0.5,0.6c-1.6,2-3.5,3.8-5.5,5.7c-0.5,0.5-1,0.9-1.6,1.4l-0.3-11.7l10.1-11.7l-10.2,8.9l-0.3-11.9l0.3-0.3
		l8.9-10.4l-9.2,7.7l-0.4-17.2l-0.4,17.2l-9.2-7.8L49,43.1l0.3,0.3L49,55.3l-10.2-8.9l10.1,11.7l-0.3,11.7c-0.5-0.5-1.1-0.9-1.6-1.4
		c-2.1-1.9-3.9-3.7-5.5-5.7c-0.2-0.2-0.3-0.4-0.5-0.6c-1.6-2-2.9-4-4-6.1c-0.1-0.2-0.2-0.4-0.3-0.5c-1.1-2.1-1.9-4.2-2.5-6.3
		c0-0.2-0.1-0.3-0.1-0.5c-0.5-2.2-0.9-4.4-0.9-6.6c0-2.2,0.3-4.5,0.9-7l0.3-1C36.6,26.9,41.8,19.8,49.8,13.5z M15.5,63.7
		c-7.2-7.2-10.2-18.3-8.6-32c2.4-0.3,4.7-0.4,7-0.4c5.7,0,10.8,0.9,15.3,2.7c-0.7,2.7-1.1,5.5-1.1,8.2c0,1.4,0.1,2.8,0.3,4.2
		c0.1,0.4,0.2,0.9,0.3,1.3c0.2,0.9,0.3,1.9,0.6,2.8c0.1,0.5,0.3,1.1,0.5,1.6c0.2,0.7,0.4,1.4,0.7,2.1l-4.2-4v-0.2l-1.1-13.6l-1,11.8
		L11.6,36.7l11.7,12.5l-11.8,1l13.6,1.1h0.2l7.7,8.2l0,0l-12.7,1.3l14.6,1.5c0,0,0.1,0.1,0.1,0.1c0.4,0.6,0.9,1.3,1.4,1.9
		c0.5,0.6,1,1.2,1.5,1.9c0.6,0.7,1.1,1.3,1.7,2c0.5,0.6,1.1,1.1,1.6,1.7c0.7,0.7,1.3,1.3,2.1,2c0.2,0.2,0.4,0.4,0.6,0.6
		c-1.1,0.1-2.3,0.1-3.4,0.1C30,72.7,21.5,69.7,15.5,63.7z M84.1,63.7c-6,6-14.5,9-25,9c-1.1,0-2.2,0-3.3-0.1
		c0.2-0.2,0.4-0.4,0.6-0.6c0.7-0.6,1.4-1.3,2.1-2c0.6-0.6,1.1-1.1,1.7-1.7c0.6-0.6,1.2-1.3,1.7-1.9c0.5-0.6,1-1.2,1.5-1.9
		c0.5-0.6,0.9-1.2,1.4-1.9c0,0,0.1-0.1,0.1-0.1l14.6-1.5l-12.7-1.3l0,0l7.7-8.2h0.2l13.6-1.1l-11.8-1L88,36.7L75.5,48.4l-1-11.8
		l-1.1,13.6v0.2l-4.2,4c0.3-0.7,0.5-1.4,0.7-2.1c0.2-0.5,0.4-1,0.5-1.6c0.2-0.9,0.4-1.9,0.6-2.9c0.1-0.4,0.2-0.9,0.2-1.3
		c0.2-1.4,0.3-2.8,0.3-4.2c0-2.8-0.4-5.5-1.1-8.2c4.4-1.7,9.6-2.7,15.3-2.7c2.3,0,4.6,0.1,7,0.4C94.2,45.5,91.3,56.5,84.1,63.7z"/>
</g>
<g id="vegan" class="st1">
	<path class="st2" d="M90.5,21.8c-3.1-2.3-7.6-4.7-11.9-6.4C74.3,13.9,67.7,12,60.4,12c-7,0-13.5,1.7-19,5.1
		C36.5,20,33,23.8,30.8,28.6l-0.1,0.2c-1.2,3.1-3.7,9.5-0.7,17.4l1.6,4.1l-2.3,6.5l-8.5-22.1c-1.8,0-3.3,0.8-5.1,0.7l13.6,36.4
		l8.6-24.4c0.7-2.1,2.3-6.1,6.2-10.8c8.5-10.5,19.2-11.2,19.2-11.2s-0.7-0.2-2-0.2c-3.2,0-9.9,0.9-17.7,7.4
		c-7,5.9-8.8,11.6-8.8,11.6c-2.3-5.9-0.6-10.6,0.7-13.8c1.4-3.2,3.9-6.6,8.5-9.3c5.2-3.1,10.9-4.3,16.4-4.3
		c11.9,0,22.9,5.4,26.9,8.7c0,0-7.9,0.3-15.4,7.7c-7.2,7.2-14.4,18.2-25.3,18.2c-0.5,0-1,0-1.5-0.1L32.3,87h-5.9L6.6,35.6
		c-0.2,0-0.4,0-0.5,0c-1.6,0-3.2-0.1-4.8-0.4c-0.1,0-0.2,0-0.2-0.1L22.8,92h13l12.9-35.4c4.3-0.4,8.4-2.1,12.5-5.2
		c3.8-2.9,7-6.4,10.1-9.9c1.4-1.6,2.8-3.1,4.1-4.4c5.6-5.6,11.3-6.2,11.9-6.2h0c6-0.7,11.6,0,11.6,0S96.4,26.3,90.5,21.8z"/>
	<polygon class="st2" points="20.8,39.8 2.8,39.8 0.9,34.8 20.8,34.8 	"/>
</g>
<g id="dry_free" class="st1">
	<circle class="st2" cx="50.1" cy="15.4" r="1"/>
	<path class="st2" d="M45.1,27c0.8,0,1.5-0.7,1.5-1.5c0-0.8-0.7-1.5-1.5-1.5c-0.8,0-1.5,0.7-1.5,1.5S44.3,27,45.1,27z"/>
	<path class="st2" d="M55.2,27c0.8,0,1.5-0.7,1.5-1.5c0-0.8-0.7-1.5-1.5-1.5c-0.8,0-1.5,0.7-1.5,1.5C53.7,26.3,54.4,27,55.2,27z"/>
	<path class="st2" d="M40.1,37.5c1.1,0,1.9-0.9,1.9-1.9c0-1.1-0.9-1.9-1.9-1.9c-1.1,0-1.9,0.9-1.9,1.9C38.2,36.6,39,37.5,40.1,37.5z
		"/>
	<path class="st2" d="M50.1,37.5c1.1,0,1.9-0.9,1.9-1.9c0-1.1-0.9-1.9-1.9-1.9s-1.9,0.9-1.9,1.9C48.2,36.6,49.1,37.5,50.1,37.5z"/>
	<path class="st2" d="M35.1,48c1.3,0,2.3-1,2.3-2.3s-1-2.3-2.3-2.3c-1.3,0-2.3,1-2.3,2.3S33.8,48,35.1,48z"/>
	<path class="st2" d="M45.1,48c1.3,0,2.3-1,2.3-2.3s-1-2.3-2.3-2.3c-1.3,0-2.3,1-2.3,2.3C42.8,46.9,43.8,48,45.1,48z"/>
	<circle class="st2" cx="55.2" cy="45.6" r="2.3"/>
	<path class="st2" d="M32.8,55.7c0-1.5-1.2-2.8-2.8-2.8c-1.6,0-2.8,1.2-2.8,2.8c0,1.6,1.2,2.8,2.8,2.8
		C31.6,58.5,32.8,57.2,32.8,55.7z"/>
	<path class="st2" d="M40.1,58.5c1.5,0,2.8-1.2,2.8-2.8s-1.2-2.8-2.8-2.8c-1.5,0-2.8,1.2-2.8,2.8S38.6,58.5,40.1,58.5z"/>
	<path class="st2" d="M50.1,58.5c1.5,0,2.8-1.2,2.8-2.8s-1.2-2.8-2.8-2.8c-1.5,0-2.8,1.2-2.8,2.8S48.6,58.5,50.1,58.5z"/>
	<path class="st2" d="M38.3,65.8c0-1.8-1.4-3.2-3.2-3.2c-1.8,0-3.2,1.4-3.2,3.2c0,1.8,1.4,3.2,3.2,3.2C36.8,69,38.3,67.5,38.3,65.8z
		"/>
	<path class="st2" d="M45.1,62.6c-1.8,0-3.2,1.4-3.2,3.2c0,1.8,1.4,3.2,3.2,3.2c1.8,0,3.2-1.4,3.2-3.2C48.3,64,46.9,62.6,45.1,62.6z
		"/>
	<path class="st2" d="M55.2,62.6c-1.8,0-3.2,1.4-3.2,3.2c0,1.8,1.4,3.2,3.2,3.2c1.8,0,3.2-1.4,3.2-3.2C58.4,64,56.9,62.6,55.2,62.6z
		"/>
	<ellipse class="st2" cx="30" cy="75.8" rx="3.6" ry="3.6"/>
	<path class="st2" d="M43.7,75.8c0-2-1.6-3.6-3.6-3.6s-3.6,1.6-3.6,3.6c0,2,1.6,3.6,3.6,3.6S43.7,77.8,43.7,75.8z"/>
	<circle class="st2" cx="50.1" cy="75.8" r="3.6"/>
	<path class="st2" d="M45.1,81.8c-2.3,0-4.1,1.8-4.1,4.1c0,2.3,1.8,4.1,4.1,4.1s4.1-1.8,4.1-4.1C49.2,83.6,47.4,81.8,45.1,81.8z"/>
	<path class="st2" d="M55.2,81.8c-2.3,0-4.1,1.8-4.1,4.1c0,2.3,1.8,4.1,4.1,4.1c2.3,0,4.1-1.8,4.1-4.1
		C59.2,83.6,57.4,81.8,55.2,81.8z"/>
	<path class="st2" d="M60.2,37.5c1.1,0,1.9-0.9,1.9-1.9c0-1.1-0.9-1.9-1.9-1.9c-1.1,0-1.9,0.9-1.9,1.9
		C58.3,36.6,59.1,37.5,60.2,37.5z"/>
	<ellipse class="st2" cx="65.2" cy="45.6" rx="2.3" ry="2.3"/>
	<path class="st2" d="M60.2,58.5c1.5,0,2.8-1.2,2.8-2.8s-1.2-2.8-2.8-2.8c-1.6,0-2.8,1.2-2.8,2.8S58.7,58.5,60.2,58.5z"/>
	<path class="st2" d="M70.3,52.9c-1.5,0-2.8,1.2-2.8,2.8c0,1.6,1.2,2.8,2.8,2.8s2.8-1.2,2.8-2.8C73.1,54.2,71.8,52.9,70.3,52.9z"/>
	<path class="st2" d="M68.5,65.8c0-1.8-1.4-3.2-3.2-3.2c-1.8,0-3.2,1.4-3.2,3.2c0,1.8,1.4,3.2,3.2,3.2C67,69,68.5,67.5,68.5,65.8z"
		/>
	<circle class="st2" cx="60.2" cy="75.8" r="3.6"/>
	<circle class="st2" cx="70.3" cy="75.8" r="3.6"/>
	<path class="st2" d="M53.4,4.5c-1.1-2.8-5.6-2.8-6.6,0C41.6,18.3,35.5,27.4,30,35.5c-5.2,7.7-9.6,14.3-11.3,22.4
		c-2,9.2,0.2,18.9,5.9,26.6c5.4,7.4,13.6,12.1,22.4,13c1.1,0.1,2.1,0.1,3.2,0.1c8,0,15.6-2.9,21.6-8.4c6.7-6.1,10.5-14.7,10.5-23.8
		c0-12-5.3-19.9-12.1-30C64.7,27.4,58.5,18.3,53.4,4.5z M75.3,69c0.8,0,1.6-0.3,2.1-0.9c-0.4,5-2.1,9.7-5.2,13.7
		c-0.9,1.2-2.1,2.2-3.1,3.2c-0.4-1.9-2-3.3-3.9-3.3c-2.3,0-4.1,1.8-4.1,4.1c0,1.6,0.9,2.9,2.1,3.5c-3.4,1.9-7.1,3-11,3.3
		c-0.6-0.4-1.4-0.8-2.2-0.8c-0.9,0-1.7,0.4-2.4,0.9c-0.1,0-0.3,0-0.4,0c-3.7-0.3-7.3-1.5-10.5-3.4c1.3-0.7,2.3-2,2.3-3.6
		c0-2.3-1.8-4.1-4.1-4.1c-1.9,0-3.5,1.4-3.9,3.1c-1-1-2-2-2.9-3.2c-3-4.1-4.7-8.7-5.3-13.6c0.6,0.4,1.2,0.8,2,0.8
		c1.8,0,3.2-1.4,3.2-3.2c0-1.8-1.4-3.2-3.2-3.2c-0.9,0-1.7,0.4-2.3,0.9c0.1-1.6,0.1-3.1,0.5-4.6c1.6-7.3,5.6-13.3,10.7-20.8
		c4.7-7,10.5-15.6,15.5-27.5c0.3-0.7,1.2-0.7,1.5,0c5,12,10.8,20.5,15.5,27.6c6.1,9.1,10.5,16,11.1,25.3c-0.6-0.5-1.3-0.8-2.1-0.8
		c-1.8,0-3.2,1.4-3.2,3.2C72.1,67.5,73.5,69,75.3,69z"/>
</g>
<g id="cruelty-free" class="st1">
	<path class="st2" d="M9.7,55.9c0.5-0.5,0.9-0.9,1.4-1.3c2-1.7,4.5-2.9,7.2-3.5c4.8-1.2,9.7-1.8,14.5-2.6c2.2-0.3,4.6-0.2,6.8-0.4
		c3.7-0.4,5.8-2.9,7.7-5.7c1.5-2.1,2.8-4.4,4.5-6.3c1.5-1.7,3.4-3.1,5.3-4.1c1.6-0.9,1.7-1.6,0.8-3c-1.6-2.3-3.5-4.2-6-5.3
		c-0.5-0.2-0.9-0.4-1.4-0.6c-0.9-0.3-1.7-0.6-2.4-1c-1.4-0.8-2.6-1.8-3.6-3.1c-1-1.2-1.3-2.3-1.2-3.3c0.1-0.6,0.4-1.2,1-1.7
		c-5.4-5-13.1-7.6-21.1-6.2c-4.5,0.7-8.4,2.5-11.8,5.4c-0.4,0.4-0.8,0.7-1.3,1.1c-6.6,6.3-8.9,14.1-7.7,23c0.1,0.4,0.1,0.8,0.2,1.1
		c0.4,2.5,1.1,4.9,2,7.2c0.6,1.5,1.3,3.1,2,4.5C7.4,52.2,8.5,54.1,9.7,55.9L9.7,55.9z M49.8,25.3c1.6,0.6,3,1.8,4.4,2.9
		c0.4,0.3,0.7,1.5,0.5,1.6c-0.5,0.4-1.5,0.9-1.9,0.6c-3.3-2.1-7.2-1.9-10.8-2.8c-1.4-0.4-2.9-1.1-4.1-2c-2.4-1.8-2.2-4.2,0.4-5.8
		c0.7-0.5,1.6-0.7,2.5-1.2c0.5,0.4,1,0.7,1.3,1.1C44.1,22.5,46.7,24.1,49.8,25.3z"/>
	<path class="st2" d="M50.4,85.9c-0.8,0.8-1.7,1.5-2.5,2.3c-0.5,0.4-1,0.9-1.5,1.3c0.9,0.6,1.8,1.1,2.7,1.6c1,0.6,2,0.6,3,0
		c0.5-0.3,1-0.6,1.6-0.9c-0.1-0.7-0.3-1.3-0.4-2c-0.1-0.5-0.2-1-0.3-1.5C52.5,84.9,51.8,84.7,50.4,85.9z"/>
	<path class="st2" d="M96.2,21.3c-0.1-0.1-0.1-0.2-0.2-0.3c-0.1-0.2-0.2-0.4-0.3-0.6c-0.1-0.1-0.1-0.2-0.2-0.3
		c-0.1-0.2-0.2-0.4-0.3-0.6c-0.1-0.1-0.1-0.2-0.2-0.3c-0.1-0.2-0.2-0.4-0.3-0.5c-0.1-0.1-0.1-0.2-0.2-0.3c-0.1-0.2-0.2-0.4-0.4-0.6
		c-0.1-0.1-0.1-0.2-0.2-0.2c-0.2-0.2-0.3-0.5-0.5-0.7c0,0-0.1-0.1-0.1-0.1c-0.2-0.2-0.4-0.5-0.6-0.8c0-0.1-0.1-0.1-0.1-0.1
		c-0.2-0.2-0.4-0.4-0.6-0.6c-0.1-0.1-0.2-0.2-0.2-0.2c-0.2-0.2-0.3-0.3-0.5-0.5c-0.1-0.1-0.2-0.2-0.2-0.2c-0.2-0.2-0.3-0.3-0.5-0.4
		c-0.1-0.1-0.2-0.2-0.2-0.2c-0.2-0.2-0.3-0.3-0.5-0.4c-0.1-0.1-0.2-0.1-0.2-0.2c-0.2-0.2-0.4-0.3-0.6-0.5c-0.1,0-0.1-0.1-0.2-0.1
		c-0.3-0.2-0.5-0.4-0.8-0.6c0,0,0,0,0,0c-0.2-0.2-0.5-0.3-0.8-0.5c-0.1-0.1-0.2-0.1-0.2-0.2c-0.2-0.1-0.4-0.2-0.6-0.4
		c-0.1-0.1-0.2-0.1-0.3-0.2c-0.2-0.1-0.4-0.2-0.6-0.3c-0.1-0.1-0.2-0.1-0.3-0.2c-0.2-0.1-0.4-0.2-0.6-0.3c-0.1-0.1-0.2-0.1-0.3-0.2
		c-0.2-0.1-0.4-0.2-0.6-0.3c-0.1,0-0.2-0.1-0.3-0.1c-0.3-0.1-0.5-0.2-0.8-0.3c0,0-0.1,0-0.1,0c-0.3-0.1-0.6-0.2-0.9-0.3
		c-0.1,0-0.2-0.1-0.3-0.1c-0.2-0.1-0.4-0.1-0.6-0.2c-0.1,0-0.2-0.1-0.4-0.1c-0.2-0.1-0.4-0.1-0.6-0.2c-0.1,0-0.3-0.1-0.4-0.1
		c-0.2,0-0.4-0.1-0.6-0.1c-0.2,0-0.3-0.1-0.4-0.1c-0.2,0-0.4-0.1-0.6-0.1c-0.2,0-0.3-0.1-0.4-0.1c-0.2,0-0.4-0.1-0.6-0.1
		c-0.1,0-0.2,0-0.4-0.1c-0.3,0-0.6-0.1-0.9-0.1c-0.2,0-0.3,0-0.4,0c-0.2,0-0.4,0-0.6,0c-0.2,0-0.3,0-0.5,0c-0.1,0-0.2,0-0.4,0
		c0,0-0.1,0-0.1,0c-0.2,0-0.5,0-0.8,0c-0.1,0-0.2,0-0.4,0c-0.3,0-0.6,0-0.8,0.1c-0.1,0-0.2,0-0.3,0c-0.3,0-0.6,0.1-0.9,0.1
		c-0.1,0-0.2,0-0.2,0C69.8,7.8,69.4,7.9,69,8c-4.1,0.7-7.7,2.3-10.8,4.6c-0.6,0.5-1.1,0.9-1.7,1.4l0,0c0.6,0.3,1.2,0.6,1.8,0.9
		c3.3,2,5.9,5.4,7.3,9.8c0.6,1.7,1,3.4,1.3,5.2c0.2,1.3,0.9,1.9,2.1,2.2c5,1.4,8.4,4.5,9.4,9.8c0.3,1.6,1,3.2,1.6,4.7
		c0.5,1.2,1.2,2.3,1.6,3.5c0.3,0.9,0.6,2,0.2,2.8c-1.6,3.3-4,5.6-7.9,5.7c-1.2,0.1-2.5,0.2-3.7,0.3c-2.2,0.3-3.1,1.4-2.9,3.7
		c0.1,0.7,0.2,1.5,0.2,2.2c0.5,5.2-1,9.9-4.1,14.1c-0.7,1-1.2,2-1.3,3.1c-0.1,0.7-0.1,1.5-0.1,2.3c0,0,0,0.1,0,0.1
		c4-2.8,7.8-5.8,11.5-9c1.9-1.7,3.8-3.4,5.6-5.1c5.3-5.3,10.1-11,13.9-17.5c2.4-4.3,4.3-8.9,5.2-13.7c0.2-1.3,0.4-2.7,0.5-4.1
		c0.1-0.8,0.1-1.7,0.1-2.5c-0.1-3.5-0.8-7-2.3-10.3C96.5,21.9,96.4,21.6,96.2,21.3z"/>
</g>
</svg>
