<?xml version="1.0" encoding="utf-8"?>
<!-- Generator: Adobe Illustrator 26.0.3, SVG Export Plug-In . SVG Version: 6.00 Build 0)  -->
<svg version="1.1" id="art" xmlns="http://www.w3.org/2000/svg" xmlns:xlink="http://www.w3.org/1999/xlink" x="0px" y="0px"
	 viewBox="0 0 54.2 69.1" style="enable-background:new 0 0 54.2 69.1;" xml:space="preserve">
<style type="text/css">
	.st0{fill:#FFFFFF;}
</style>
<g>
	<g>
		<g>
			<path id="XMLID_00000108998375155322450420000002417827461112792254_" class="st0" d="M14.9,14.3c-2.5,0.8-4.9,2.1-7.1,3.8
				L0.3,5.4c0,0,3.6-2.9,9.6-4.2C10,1.2,14.9,14.3,14.9,14.3z M24.1,0.1c-4.1-0.2-7.3,0-10.9,0.6l3.4,13.1c2.2-0.5,4.4-0.8,6.9-0.7
				L24.1,0.1z M36.7,3.5c-3-1.5-6.3-2.5-9.5-3l-1.9,12.9c2.2,0.2,4.2,0.8,6.2,1.6L36.7,3.5z M46.1,11c-2-2.5-4.3-4.5-6.8-6.1
				L33,15.6c1.8,0.9,3.4,1.9,4.9,3.2L46.1,11z M51,20.3c-0.8-2.6-2-5-3.3-7.1L39,19.9c1.3,1.3,2.5,2.8,3.5,4.5L51,20.3z M52.7,29.8
				c-0.1-2.6-0.5-4.9-1-7.1l-8.5,3c0.8,1.6,1.4,3.3,1.8,5.1L52.7,29.8z M45.5,36.9l6.9,0.3c0.2-1.7,0.3-3.5,0.3-5.4c0,0,0,0,0,0
				l-7.4,0.3C45.5,33.3,45.6,35.4,45.5,36.9z M51.3,43.9c0.4-1.6,0.7-3.2,0.9-4.9l-6.7-0.7c-0.1,1.6-0.3,3.1-0.5,4.4L51.3,43.9z
				 M49.7,49.7c0.4-1.4,0.8-2.7,1.1-4.2l-6.1-1.4c-0.3,1.5-0.7,2.9-1,4.2L49.7,49.7z M48.6,54.5c0.2-1,0.4-2,0.7-3.1l-6-1.4
				c-0.3,1.2-0.6,2.5-0.8,3.8L48.6,54.5z M48.2,58.5c0-0.8,0-1.7,0.1-2.7l-6-0.5c-0.1,1.3,0,2.6,0.2,3.9L48.2,58.5z M48.9,62.1
				c-0.2-0.7-0.4-1.4-0.5-2.1l-5.4,0.9c0.3,1.3,0.8,2.5,1.4,3.6L48.9,62.1z M40.3,54.6c0.7-6.2,3.1-10.2,3.1-18.8
				c0-11.4-9.3-19.8-20.6-19.8c-6.3,0-11.3,2.6-15,6.4c1,1.8,3,3.3,4.9,4.2c3.1,1.4,5.7,2.3,7.6,3.1c3.2,1.3,4.3,2.3,4.8,3.4
				c0.2,0.5-0.1,0.7-0.6,0.3c-1.2-0.8-5.4-2.3-8.7-3.4c-5.8-2-8.5-3.8-10.1-6.8c-0.2-0.4-0.6-0.4-0.7,0C3.6,26.6,2,31.9,1.4,36
				c-0.2,1,0,1.2,0.7,1.5c0.8,0.3,1.9,0.6,3.2,1c-0.5,1.4-3.4,9.8-3.7,10.7c-0.3,1-0.1,1.6,0.8,1.8c0.9,0.2,1.5,0.4,2,0.4
				c0.6,0.1,0.8,0.5,0.7,1.1c-0.1,0.6-0.3,1.1-0.4,1.7c-0.2,0.6,0.2,0.9,0.5,2.6c0.1,0.7-0.7,2.3-0.6,3.7c0.1,1.9,1.6,2.6,5.6,2.6
				c2.5,0,5.5-0.6,6.7-1.1c0,0,0,5.7,0,6.1c0,0.6,0.3,0.8,0.8,0.9c1.1,0.1,2.9,0.1,4.1,0c0.6-0.1,0.8-0.4,0.8-1.1
				c0-0.7,0-9.7,0-10.2c0-0.5-0.1-1-0.7-0.7c-0.6,0.3-3.5,1.9-6.1,2.5c-2.8,0.8-4.7,0.4-5.1,0c-0.3-0.3-0.4-0.6-0.4-1.2
				c0-0.6,0-5.8,0-6.8c0-1.5,0.2-2.5,1.3-3.7c0.8-1,1.6-1.6,1.6-2.8c0-1.2-0.8-1.7-1.6-2.5c-0.7-0.7-3.3-2.6-4.4-3.5
				c3.7,0.9,8.3,1.8,11.6,2.3c0,0-2.2,11.5-2.3,12.1c-0.1,0.4,0.1,0.6,0.4,0.6c3.8,0.8,7.5-0.2,9.6-3.8c0.9,7,6.7,10.6,14,11.9
				c0.6,0.1,0.7,0,0.5-0.5C40.4,59.7,40,57.2,40.3,54.6z"/>
		</g>
	</g>
</g>
</svg>
