<?xml version="1.0" encoding="utf-8"?>
<!-- Generator: Adobe Illustrator 26.0.3, SVG Export Plug-In . SVG Version: 6.00 Build 0)  -->
<svg version="1.1" id="Layer_1" xmlns="http://www.w3.org/2000/svg" xmlns:xlink="http://www.w3.org/1999/xlink" x="0px" y="0px"
	 viewBox="0 0 39 38" style="enable-background:new 0 0 39 38;" xml:space="preserve">
<style type="text/css">
	.st0{fill:#002169;}
</style>
<path class="st0" d="M18.6,38c-3.4-0.1-7.2-1.2-10.6-3.7c-2.4-1.7-4.3-3.9-5.7-6.5c-1.2-2.3-1.9-4.8-2.1-7.4
	c-0.3-3.7,0.5-7.3,2.3-10.5c2.6-4.7,6.6-7.8,11.8-9.2c2.6-0.7,5.3-0.9,8-0.5c3.9,0.6,7.3,2.2,10.2,4.8c2.9,2.6,4.8,5.8,5.7,9.6
	c0.6,2.4,0.7,4.8,0.3,7.3c-0.4,2.5-1.2,4.8-2.6,7c-2.8,4.4-6.7,7.3-11.8,8.5C22.5,37.8,21,38,18.6,38z M37.3,19.7
	c0-2.6-0.3-4.4-0.9-6.2c-1.3-3.8-3.6-6.9-6.9-9.1c-3.7-2.5-7.7-3.4-12.1-3c-2.3,0.2-4.6,0.9-6.6,2.1c-3.1,1.7-5.6,4.2-7.2,7.3
	c-1.7,3.1-2.3,6.5-1.9,10c0.6,5.1,2.9,9.2,7,12.2c4.1,3.1,8.8,4.1,13.9,3.3c4.2-0.7,7.7-2.7,10.5-5.9C35.9,27.2,37.3,23.4,37.3,19.7
	z"/>
<path class="st0" d="M19.9,10.7c2.3,0.1,5.1,0.2,7.8,0.3c0.8,0,1.5,0.3,2.2,0.8c0.7,0.6,1,1.4,1.1,2.3c0.1,1,0.2,2,0.3,3
	c0,1.6,0,3.1-0.1,4.7c0,1-0.1,2-0.4,3c-0.4,1.2-1.3,2-2.6,2.1c-0.7,0.1-1.4,0.1-2.1,0.2c-4.5,0.2-9,0.2-13.4,0
	c-0.7,0-1.4-0.1-2.1-0.2c-1.2-0.2-2.1-0.8-2.5-2.1c-0.2-0.7-0.3-1.4-0.4-2.1c-0.2-2.8-0.3-5.5,0.1-8.3c0.1-0.6,0.2-1.1,0.4-1.6
	c0.4-1,1.1-1.5,2.2-1.7c0.7-0.1,1.4-0.2,2.2-0.2C14.9,10.8,17.1,10.7,19.9,10.7z M23.3,18.9c-2.2-1.1-4.2-2.2-6.3-3.2
	c0,2.2,0,4.4,0,6.6C19.1,21.1,21.1,20,23.3,18.9z"/>
</svg>
