<?xml version="1.0" encoding="utf-8"?>
<!-- Generator: Adobe Illustrator 26.0.3, SVG Export Plug-In . SVG Version: 6.00 Build 0)  -->
<svg version="1.1" id="Layer_1" xmlns="http://www.w3.org/2000/svg" xmlns:xlink="http://www.w3.org/1999/xlink" x="0px" y="0px"
	 viewBox="0 0 500 500" style="enable-background:new 0 0 500 500;" xml:space="preserve">
<style type="text/css">
	.st0{fill:#666666;}
</style>
<g>
	<g>
		<g>
			<path id="XMLID_00000108998375155322450420000002417827461112792254_" class="st0" d="M194.5,154c-12,4-23.2,10.1-33.5,18.2
				l-35.7-60.8c0,0,17.3-13.7,45.7-19.9C171.1,91.5,194.5,154,194.5,154z M238,86.4c-19.4-1-34.7,0-51.8,3.1l16.3,62.2
				c10.2-2.6,20.9-3.6,32.6-3.2L238,86.4z M297.7,102.5c-14.4-7.2-29.8-11.9-45.3-14.5l-9,61.2c10.3,1.2,20.1,3.7,29.2,7.4
				L297.7,102.5z M342.5,138.3c-9.4-11.7-20.4-21.3-32.5-28.9L280.3,160c8.4,4.1,16.1,9.2,23.1,15.2L342.5,138.3z M365.9,182.4
				c-4-12.5-9.4-23.7-15.9-33.7l-41.1,31.6c6.4,6.3,11.9,13.4,16.4,21.1L365.9,182.4z M373.7,227.3c-0.6-12.1-2.1-23.4-4.7-33.9
				l-40.2,14.3c3.7,7.5,6.7,15.6,8.6,24L373.7,227.3z M339.8,261.2l32.7,1.2c0.9-8,1.4-16.5,1.4-25.4c0-0.1,0-0.1,0-0.2l-35.3,1.4
				C339.5,243.8,340.2,253.9,339.8,261.2z M367,294.2c1.7-7.4,3.2-15.1,4.4-23.2l-31.8-3.5c-0.4,7.6-1.3,14.6-2.4,21L367,294.2z
				 M359.8,321.7c1.8-6.5,3.6-13,5.3-19.7l-29.2-6.6c-1.4,7.2-3.1,13.8-4.7,20.1L359.8,321.7z M354.2,344.4
				c0.8-4.6,1.9-9.4,3.3-14.6l-28.4-6.4c-1.5,5.9-2.9,11.7-3.7,18L354.2,344.4z M352.6,363.7c-0.1-4,0-8.1,0.5-12.6l-28.4-2.3
				c-0.2,6.3,0.2,12.5,1.1,18.5L352.6,363.7z M355.6,380.5c-1.1-3.2-1.9-6.6-2.4-10.1l-25.8,4.4c1.5,6.1,3.6,11.8,6.4,16.9
				L355.6,380.5z M314.9,345.2c3.2-29.4,14.9-48.5,14.9-89.3c0-54-44.1-94.2-97.8-94.2c-30,0-53.5,12.5-71.1,30.4
				c4.8,8.7,14,15.7,23.5,20c14.6,6.7,27.2,10.9,36.2,14.6c15.4,6.4,20.6,10.8,22.9,16.2c1,2.5-0.4,3.2-2.7,1.5
				c-5.6-4-25.6-10.7-41.2-16.2c-27.5-9.7-40.3-17.8-48-32.3c-1-1.9-2.7-1.9-3.5-0.1c-7.5,16.5-14.8,41.6-17.9,60.7
				c-0.7,4.6,0.2,5.8,3.5,7c3.9,1.4,9.1,3,15,4.6c-2.4,6.9-16.1,46.6-17.5,50.9c-1.6,4.8-0.5,7.7,3.6,8.7c4.1,0.9,7.3,1.7,9.6,2.1
				c3,0.5,3.9,2.3,3.4,5.2c-0.5,2.8-1.2,5.4-2.1,7.9c-1,2.9,1,4.5,2.3,12.3c0.6,3.3-3.4,10.7-2.9,17.6c0.7,8.9,7.6,12.4,26.7,12.4
				c11.6,0,26-2.9,31.7-5c0,0.2,0,26.9,0,29.1c0,2.7,1.3,3.8,3.6,4.1c5.4,0.6,14,0.7,19.6-0.1c2.9-0.4,3.9-1.8,3.9-5.2
				c0-3.4,0-46,0-48.5c0-2.5-0.7-4.6-3.4-3.2c-2.7,1.4-16.6,8.9-28.9,12.1c-13.5,3.6-22.3,2-24.2-0.1c-1.4-1.5-1.8-2.8-1.8-5.8
				c0-2.9,0-27.6,0-32.1c0-7.3,0.9-11.6,6.2-17.8c4-4.7,7.7-7.7,7.7-13.5c0-5.7-3.6-8.2-7.7-12.1c-3.4-3.2-15.5-12.3-20.6-16.7
				c17.7,4.4,39.3,8.6,55,10.7c0,0-10.4,54.8-10.8,57.3c-0.3,1.8,0.2,2.7,1.9,3c18.2,4,35.7-1,45.4-18.2c4.4,33,31.7,50.3,66.7,56.5
				c2.9,0.5,3.5,0,2.5-2.5C315.4,369.1,313.6,357.2,314.9,345.2z"/>
		</g>
	</g>
</g>
</svg>
