<?xml version="1.0" standalone="no"?>
<!DOCTYPE svg PUBLIC "-//W3C//DTD SVG 20010904//EN"
 "http://www.w3.org/TR/2001/REC-SVG-20010904/DTD/svg10.dtd">
<svg version="1.0" xmlns="http://www.w3.org/2000/svg"
 width="700.000000pt" height="700.000000pt" viewBox="0 0 700.000000 700.000000"
 preserveAspectRatio="xMidYMid meet">
<metadata>
Created by potrace 1.14, written by Peter Selinger 2001-2017
</metadata>
<g transform="translate(0.000000,700.000000) scale(0.100000,-0.100000)"
fill="#000000" stroke="none">
<path d="M3017 5794 c-1 -1 -47 -4 -102 -8 -55 -3 -111 -8 -125 -10 -14 -3
-59 -10 -100 -16 -41 -6 -76 -12 -78 -14 -4 -4 18 -94 82 -331 24 -93 66 -251
91 -350 26 -99 48 -181 50 -183 1 -2 40 4 86 12 102 19 166 25 282 27 74 0 87
3 88 17 0 9 2 37 4 62 2 46 15 317 20 425 1 33 6 129 10 213 l7 152 -34 1
c-74 2 -279 4 -281 3z"/>
<path d="M3520 5677 c-7 -50 -14 -99 -15 -109 -2 -9 -7 -38 -10 -65 -4 -26
-15 -102 -25 -168 -10 -66 -21 -140 -24 -165 -4 -25 -8 -56 -10 -70 -3 -14 -7
-41 -10 -60 -2 -19 -8 -56 -11 -81 l-7 -45 89 -17 c136 -25 137 -25 229 -57
82 -28 88 -28 100 -12 7 9 14 20 14 25 0 4 18 46 41 93 22 48 53 114 69 148
15 33 56 122 90 196 35 74 77 167 96 206 l32 72 -106 45 c-159 67 -303 110
-508 152 -20 4 -22 -2 -34 -88z"/>
<path d="M2310 5699 c-161 -44 -313 -109 -468 -201 -67 -40 -82 -53 -77 -69 5
-15 62 -114 126 -219 9 -15 188 -323 302 -517 l60 -103 61 43 c95 68 192 122
301 168 55 23 101 43 103 44 3 2 -46 141 -91 255 -13 36 -41 110 -62 165 -20
55 -40 109 -45 120 -5 11 -35 91 -67 177 -32 87 -60 158 -63 157 -3 0 -39 -9
-80 -20z"/>
<path d="M4304 5408 c-17 -29 -108 -185 -202 -345 -95 -161 -172 -297 -172
-303 0 -5 5 -10 10 -10 17 0 189 -108 249 -156 31 -24 60 -40 67 -36 6 4 74
66 150 138 77 73 157 149 180 170 23 22 78 74 124 117 l82 78 -18 27 c-37 56
-201 212 -329 310 -35 27 -91 62 -100 62 -6 0 -24 -24 -41 -52z"/>
<path d="M4864 4892 c-17 -15 -142 -112 -277 -216 -136 -104 -250 -192 -252
-196 -3 -5 10 -25 29 -45 53 -56 98 -113 147 -186 30 -44 49 -64 59 -61 8 3
74 33 145 67 72 34 192 90 268 125 75 35 137 67 137 72 0 14 -65 178 -101 253
-29 60 -117 216 -122 215 -1 0 -16 -13 -33 -28z"/>
<path d="M3135 4732 c-212 -19 -449 -97 -609 -200 -64 -41 -198 -146 -234
-185 -25 -26 -32 -40 -27 -56 10 -33 134 -154 200 -196 59 -38 260 -132 331
-155 20 -7 48 -18 62 -26 15 -8 32 -14 37 -14 19 0 260 -101 335 -141 104 -55
180 -128 180 -174 0 -22 -10 -19 -87 19 -74 37 -136 62 -348 137 -374 134
-493 184 -612 261 -84 55 -163 133 -211 207 -53 84 -61 86 -92 18 -79 -172
-186 -532 -226 -759 -24 -138 -24 -138 123 -184 65 -20 119 -37 121 -39 1 -1
-37 -114 -84 -251 -163 -474 -173 -505 -162 -534 11 -33 30 -42 136 -65 60
-13 86 -24 93 -37 12 -22 7 -70 -14 -137 -12 -39 -11 -52 5 -110 22 -80 23
-113 3 -177 -37 -123 -29 -210 25 -257 55 -49 118 -62 300 -62 184 0 247 6
368 35 46 11 87 20 93 20 5 0 9 -88 9 -215 l0 -215 25 -16 c20 -13 51 -16 156
-16 141 0 184 10 193 45 3 12 6 182 6 378 0 277 -3 359 -13 373 -12 17 -19 15
-113 -31 -115 -58 -261 -115 -354 -139 -79 -20 -227 -26 -274 -12 -62 19 -65
35 -63 363 l2 290 26 55 c15 30 50 82 79 115 60 69 76 97 83 143 14 85 -28
136 -256 317 -69 55 -125 101 -123 102 1 2 54 -9 117 -23 63 -14 125 -28 139
-30 14 -3 80 -16 147 -29 68 -14 140 -27 160 -30 21 -3 47 -8 59 -10 11 -3 42
-7 69 -10 62 -8 67 -11 60 -43 -6 -30 -12 -61 -21 -112 -4 -19 -8 -44 -11 -55
-15 -77 -24 -124 -29 -150 -20 -110 -34 -183 -38 -201 -2 -12 -7 -39 -10 -60
-4 -22 -8 -46 -11 -54 -16 -56 -28 -167 -18 -173 42 -26 266 -28 343 -3 127
42 227 116 286 213 l22 38 7 -30 c29 -137 94 -284 159 -364 160 -196 407 -324
763 -396 47 -9 53 -1 36 52 -57 185 -63 387 -18 604 9 41 40 173 70 294 29
121 56 234 59 250 2 17 9 55 15 85 41 221 48 528 16 695 -50 258 -168 478
-360 670 -142 142 -318 254 -495 315 -36 12 -72 25 -80 28 -26 9 -62 17 -175
38 -73 14 -278 23 -350 16z"/>
<path d="M5140 4283 c-8 -2 -37 -13 -65 -23 -27 -10 -104 -37 -170 -60 -66
-23 -127 -45 -135 -49 -8 -4 -48 -18 -87 -31 -40 -14 -73 -29 -73 -35 0 -7 9
-29 20 -51 10 -21 36 -92 57 -157 l38 -119 67 7 c37 3 77 8 90 10 28 4 172 22
252 31 33 3 67 7 75 9 13 2 16 15 15 66 -1 59 -8 143 -20 212 -2 15 -6 42 -9
60 -11 67 -28 137 -34 136 -3 0 -13 -3 -21 -6z"/>
<path d="M5166 3683 c-1 -1 -89 -5 -195 -9 -242 -8 -226 -5 -224 -40 1 -16 4
-85 7 -153 3 -69 9 -128 13 -132 5 -4 108 -11 231 -14 l222 -7 1 44 c1 23 2
57 4 73 3 31 8 212 6 230 -1 9 -57 15 -65 8z"/>
<path d="M4751 3209 c-1 -24 -8 -89 -15 -144 -8 -55 -13 -101 -12 -102 2 -3
186 -39 239 -48 17 -3 55 -10 82 -16 28 -5 60 -12 71 -14 18 -4 23 1 30 33 4
20 8 39 9 42 1 3 5 25 10 50 5 25 9 47 10 50 1 3 5 28 10 55 4 28 9 58 11 67
4 23 -1 25 -71 32 -33 4 -78 9 -100 12 -51 6 -100 12 -196 20 l-75 6 -3 -43z"/>
<path d="M4690 2805 c-6 -30 -11 -57 -11 -60 0 -2 -5 -19 -10 -37 -6 -18 -12
-42 -14 -53 -3 -11 -7 -32 -10 -46 -6 -26 -4 -27 72 -43 210 -45 307 -67 315
-72 4 -3 8 1 8 9 0 8 9 43 20 78 11 34 22 74 25 88 3 14 9 41 15 60 12 42 9
47 -32 55 -49 9 -62 12 -210 45 -76 17 -142 31 -147 31 -5 0 -15 -25 -21 -55z"/>
<path d="M4603 2458 c0 -7 -6 -33 -13 -58 -28 -103 -36 -180 -19 -181 8 0 21
-2 29 -3 8 -2 51 -7 95 -11 44 -4 94 -8 110 -10 17 -2 58 -7 91 -10 l62 -6 16
73 c9 40 19 87 22 103 l6 31 -69 14 c-37 8 -72 15 -78 16 -5 2 -23 6 -40 9
-16 3 -48 11 -70 17 -22 5 -49 12 -60 14 -77 15 -82 15 -82 2z"/>
<path d="M4548 2107 c-6 -15 -1 -148 7 -205 l6 -43 45 5 c24 3 65 8 92 11 26
3 58 8 72 10 14 3 45 7 70 10 25 3 54 8 65 10 11 2 22 4 25 4 3 1 6 42 7 91
l3 90 -53 1 c-28 1 -63 3 -77 4 -14 1 -68 5 -120 9 -52 4 -105 9 -116 11 -12
3 -24 -1 -26 -8z"/>
<path d="M4889 1806 c-3 -3 -27 -8 -54 -12 -28 -3 -59 -8 -70 -10 -11 -2 -55
-9 -97 -16 -92 -15 -91 -11 -47 -131 48 -135 32 -132 206 -42 l149 77 -15 69
c-15 64 -18 69 -42 69 -14 0 -28 -2 -30 -4z"/>
</g>
</svg>
