<?xml version="1.0" encoding="utf-8"?>
<!-- Generator: Adobe Illustrator 26.0.3, SVG Export Plug-In . SVG Version: 6.00 Build 0)  -->
<svg version="1.1" xmlns="http://www.w3.org/2000/svg" xmlns:xlink="http://www.w3.org/1999/xlink" x="0px" y="0px"
	 viewBox="0 0 500 500" style="enable-background:new 0 0 500 500;" xml:space="preserve">
<style type="text/css">
	.st0{display:none;}
	.st1{fill:#12284C;}
	
		.st2{fill:none;stroke:#12284C;stroke-width:11.1822;stroke-linecap:round;stroke-linejoin:round;stroke-miterlimit:10;stroke-dasharray:22.3695,22.3695;}
	.st3{display:inline;fill:#12284C;}
	
		.st4{display:inline;fill:none;stroke:#FFFFFF;stroke-width:6.4255;stroke-linecap:round;stroke-linejoin:round;stroke-dasharray:104.5784,104.5784;}
	
		.st5{display:inline;fill:none;stroke:#FFFFFF;stroke-width:6.4255;stroke-linecap:round;stroke-linejoin:round;stroke-dasharray:86.1666,86.1666;}
	
		.st6{display:inline;fill:none;stroke:#FFFFFF;stroke-width:6.0023;stroke-linecap:round;stroke-linejoin:round;stroke-dasharray:62.8304,62.8304;}
	
		.st7{display:inline;fill:none;stroke:#FFFFFF;stroke-width:6.0023;stroke-linecap:round;stroke-linejoin:round;stroke-miterlimit:10;stroke-dasharray:48.5707,48.5707;}
	
		.st8{display:inline;fill:none;stroke:#FFFFFF;stroke-width:6.0023;stroke-linecap:round;stroke-linejoin:round;stroke-miterlimit:10;stroke-dasharray:72.8561,72.8561;}
	.st9{display:inline;fill:#9BA1B3;}
	.st10{display:inline;fill:#FFFFFF;}
	
		.st11{display:inline;fill:none;stroke:#12284C;stroke-width:14.5193;stroke-linecap:round;stroke-linejoin:round;stroke-miterlimit:10;}
	
		.st12{display:inline;fill:none;stroke:#12284C;stroke-width:12.0863;stroke-linecap:round;stroke-linejoin:round;stroke-miterlimit:10;stroke-dasharray:24.1737,24.1737;}
	.st13{display:inline;fill:none;stroke:#12284C;stroke-width:12.5264;stroke-linecap:round;stroke-linejoin:round;}
	
		.st14{display:inline;fill:none;stroke:#12284C;stroke-width:12.5264;stroke-linecap:round;stroke-linejoin:round;stroke-dasharray:33.5185,47.8835;}
	
		.st15{display:inline;fill:none;stroke:#12284C;stroke-width:12.5264;stroke-linecap:round;stroke-linejoin:round;stroke-dasharray:33.0527,47.2181;}
	
		.st16{display:inline;fill:none;stroke:#12284C;stroke-width:12.5264;stroke-linecap:round;stroke-linejoin:round;stroke-dasharray:33.6977,48.1395;}
	
		.st17{display:inline;fill:none;stroke:#12284C;stroke-width:12.5264;stroke-linecap:round;stroke-linejoin:round;stroke-dasharray:33.395,47.7073;}
	
		.st18{display:inline;fill:none;stroke:#12284C;stroke-width:12.5264;stroke-linecap:round;stroke-linejoin:round;stroke-dasharray:33.5783,47.9691;}
	
		.st19{display:inline;fill:none;stroke:#12284C;stroke-width:12.5264;stroke-linecap:round;stroke-linejoin:round;stroke-dasharray:33.7076,48.1536;}
	
		.st20{display:inline;fill:none;stroke:#12284C;stroke-width:12.5264;stroke-linecap:round;stroke-linejoin:round;stroke-dasharray:33.5731,47.9615;}
	
		.st21{display:inline;fill:none;stroke:#12284C;stroke-width:12.5264;stroke-linecap:round;stroke-linejoin:round;stroke-dasharray:33.1639,47.3771;}
</style>
<g id="guides" class="st0">
</g>
<g id="dispense">
	<path class="st1" d="M293.9,184.2c-2.8-20.4-17.8-34.1-37-41l0,0c-5.3-1.3-7.3-4.4-7.2-9.5c0.1-8.6-0.1-17.2,0-25.8
		c0-6-2.4-9.5-8.8-9.5c-5.2,0-10.5,0-15.7,0c-5.2,0-10.5,0-15.7,0c-6.4,0-8.8,3.5-8.8,9.5c0.1,8.6-0.1,17.2,0,25.8
		c0,5.1-1.9,8.2-7.2,9.5l0,0c-19.2,6.9-34.2,20.6-37,41c-0.2,0.9-0.4,1.9-0.4,2.9v0.2c0,0,0,0,0,0c0,0,0,0,0,0v211.2
		c0,6.3,5.1,11.4,11.4,11.4h115.6c6.3,0,11.4-5.1,11.4-11.4V187.2C294.3,186.1,294.1,185.2,293.9,184.2z M277.2,175.9
		c-34.7,0-68.2,0-103.9,0C203.1,140.6,256.7,149.3,277.2,175.9z M280.5,385.9c0,5.5-4.4,9.9-9.9,9.9h-91c-5.5,0-9.9-4.4-9.9-9.9
		v-185c0-5.5,4.4-9.9,9.9-9.9h91c5.5,0,9.9,4.4,9.9,9.9V385.9z"/>
	<line class="st2" x1="249.4" y1="125.2" x2="344.5" y2="125.2"/>
	<line class="st2" x1="249.4" y1="125.2" x2="344.5" y2="159.8"/>
	<line class="st2" x1="249.4" y1="125.2" x2="344.5" y2="90.5"/>
</g>
<g id="wash" class="st0">
	
		<ellipse transform="matrix(0.1602 -0.9871 0.9871 0.1602 -82.4858 307.4177)" class="st3" cx="139.4" cy="202.2" rx="79.2" ry="79.2"/>
	
		<ellipse transform="matrix(0.9871 -0.1602 0.1602 0.9871 -30.5858 24.9432)" class="st4" cx="139.4" cy="202.2" rx="66.6" ry="66.6"/>
	<path class="st3" d="M210.4,284.3c11.1-34.3,47.9-53.1,82.3-42c34.3,11.1,53.1,48,42,82.3c-11.1,34.3-47.9,53.1-82.3,42
		C218,355.4,199.2,318.6,210.4,284.3z"/>
	<path class="st5" d="M220.2,287.5c9.4-28.9,40.3-44.7,69.2-35.3c28.9,9.4,44.7,40.3,35.3,69.2c-9.4,28.9-40.3,44.7-69.2,35.3
		C226.7,347.3,210.9,316.3,220.2,287.5z"/>
	<path class="st3" d="M246.7,156.3c8.7-26.8,37.4-41.5,64.2-32.8c26.8,8.7,41.5,37.4,32.8,64.2c-8.7,26.8-37.4,41.5-64.2,32.8
		C252.7,211.8,238,183,246.7,156.3z"/>
	<path class="st6" d="M257,159.6c6.8-21,29.4-32.6,50.5-25.7c21,6.8,32.6,29.4,25.8,50.5c-6.8,21-29.4,32.6-50.5,25.7
		C261.8,203.3,250.2,180.7,257,159.6z"/>
	<path class="st3" d="M374.8,217.2c20.1-12,46.2-5.4,58.2,14.7c12,20.1,5.4,46.2-14.7,58.2c-20.1,12-46.2,5.4-58.2-14.7
		C348.1,255.3,354.7,229.3,374.8,217.2z"/>
	<path class="st7" d="M380.6,226.9c14.8-8.8,34-4,42.8,10.8c8.8,14.8,4,34-10.8,42.8c-14.8,8.8-34,4-42.8-10.8
		C360.9,254.9,365.7,235.7,380.6,226.9z"/>
	<path class="st3" d="M128.6,315.4c16.3-9.7,37.3-4.4,47,11.9c9.7,16.3,4.4,37.3-11.9,47c-16.3,9.7-37.3,4.4-47-11.9
		C107,346.2,112.3,325.1,128.6,315.4z"/>
	<path class="st8" d="M133.2,323.2c12-7.1,27.5-3.2,34.6,8.8c7.1,12,3.2,27.5-8.8,34.6c-12,7.1-27.5,3.2-34.6-8.8
		C117.3,345.8,121.2,330.3,133.2,323.2z"/>
</g>
<g id="chill" class="st0">
	<path class="st9" d="M217.1,274.9c-2.5,0-4.6,0-7.2,0c0.2,5.3,0.4,10.4,0.7,15.6c0.6,7.9,1.1,15.9,2,23.8
		c1.3,11.9-3.1,22.6-7.2,33.3c-5.2,13.8-13.1,26.1-22.8,37.3c-0.3,0.4-0.7,0.7-1.4,1.5c-0.5-4-1.1-7.5-1.5-11.1
		c-1.4-11.8-2.8-23.6-4-35.3c-1.1-10.3-2.1-20.7-2.8-31c-1-14.5-2-29-2.3-43.6c-0.4-18.6-0.2-37.1-0.2-55.7c0-8.9,0-17.9-0.6-27
		c-1.2,3.2-2.5,6.3-3.4,9.5c-3.4,11.4-5.2,23.1-5.8,35c-0.5,10-0.9,19.9-0.9,29.9c0,7.3,0.5,14.5,0.9,21.8c0.4,7.8-3.3,13-10.5,14.5
		c-6.9,1.5-14.3-4.2-14.5-11.3c-0.4-13.1-1.1-26.2-0.8-39.2c0.4-21.7,2.3-43.2,9.7-63.9c4.1-11.3,9.9-21.6,19.8-28.9
		c5.9-4.3,12.5-6.4,19.9-6.4c17.8,0,35.6-0.1,53.4,0c10.3,0.1,20.1-2.4,29.9-4.8c22.9-5.5,44.9-13.4,64.9-26
		c4.3-2.7,8.5-5.7,12.5-8.9c8.2-6.3,18.9-2.5,20.8,7.7c0.9,5.2-1.4,9.2-5.5,12.4c-12.1,9.5-25.2,17.1-39.2,23.3
		c-20.4,9.1-41.6,15.3-63.5,19.3c-1.5,0.3-2.2,0.8-2.2,2.5c0.1,31.3,0,62.7,0.1,94c0,5.9,1.5,11.9,1.6,17.8c0.3,9.6,0.4,19.2,0,28.8
		c-0.6,13.6-3.3,26.9-7.3,39.9c-9.4,30.6-26.3,56.5-49.8,78.1c-3.3,3.1-6.6,6.2-11.1,7.5c-8.8,2.6-18.3-1.3-22.7-9.3
		c-4.5-8-2.5-17.9,4.2-24.4c6.8-6.6,13.7-13.3,19.6-20.7c14.2-17.7,22.7-38,26.5-60.4C218.8,305.3,218.9,290.3,217.1,274.9z"/>
	<path class="st9" d="M212.9,64.4c19.7,0.1,35.1,15.8,35,35.6c-0.1,19.6-16,35-36,34.8c-19-0.2-35-16.4-34.4-36.7
		C178,79.7,193.9,64.2,212.9,64.4z"/>
	<rect x="166.1" y="260.2" class="st10" width="94.9" height="50.4"/>
</g>
<g id="shake" class="st0">
	<path class="st11" d="M118.4,203.6c0,0-74.2,78.1-3.9,179.6"/>
	<path class="st11" d="M67.6,203.6c0,0-74.2,78.1-3.9,179.6"/>
	<path class="st11" d="M381.9,203.6c0,0,74.2,78.1,3.9,179.6"/>
	<path class="st11" d="M432.7,203.6c0,0,74.2,78.1,3.9,179.6"/>
	<path class="st3" d="M324.3,179.2c-3.1-22-19.2-36.8-40-44.3h0c-5.8-1.4-7.8-4.8-7.8-10.3c0.1-9.3-0.1-18.6,0-27.9
		c0-6.5-2.6-10.3-9.5-10.3c-5.6,0-11.3,0-16.9,0c-5.7,0-11.3,0-16.9,0c-6.9,0-9.5,3.8-9.5,10.3c0.1,9.3-0.1,18.6,0,27.9
		c0,5.5-2,8.9-7.8,10.3l0,0c-20.7,7.5-36.9,22.3-40,44.3c-0.3,1-0.4,2-0.4,3.1v0.2c0,0,0,0,0,0c0,0,0,0,0,0v228.1
		c0,6.8,5.5,12.3,12.3,12.3h124.8c6.8,0,12.3-5.5,12.3-12.3V182.3C324.7,181.2,324.5,180.2,324.3,179.2z M306.2,170.1
		c-37.5,0-73.7,0-112.2,0C226.2,132,284.1,141.5,306.2,170.1z M309.8,397c0,5.9-4.8,10.7-10.7,10.7h-98.3c-5.9,0-10.7-4.8-10.7-10.7
		V197.2c0-5.9,4.8-10.7,10.7-10.7h98.3c5.9,0,10.7,4.8,10.7,10.7V397z"/>
	<line class="st12" x1="276.1" y1="115.3" x2="379" y2="115.3"/>
	<line class="st12" x1="276.1" y1="115.3" x2="379" y2="152.8"/>
	<line class="st12" x1="276.1" y1="115.3" x2="379" y2="77.9"/>
</g>
<g id="spray" class="st0">
	<line class="st13" x1="120.8" y1="207.9" x2="130.1" y2="196.6"/>
	<line class="st14" x1="160.3" y1="159.5" x2="248.1" y2="51.9"/>
	<line class="st13" x1="263.3" y1="33.3" x2="272.5" y2="22"/>
	<line class="st13" x1="130.7" y1="218" x2="142.4" y2="209.4"/>
	<line class="st15" x1="180.5" y1="181.5" x2="291" y2="100.5"/>
	<line class="st13" x1="310" y1="86.6" x2="321.8" y2="78"/>
	<line class="st13" x1="137.6" y1="231.2" x2="151.3" y2="226.3"/>
	<line class="st16" x1="196.6" y1="210.1" x2="328.1" y2="163"/>
	<line class="st13" x1="350.7" y1="154.9" x2="364.5" y2="150"/>
	<line class="st13" x1="141.3" y1="242.3" x2="155.9" y2="241.2"/>
	<line class="st17" x1="203.4" y1="237.5" x2="341.4" y2="226.9"/>
	<line class="st13" x1="365.2" y1="225.1" x2="379.7" y2="223.9"/>
	<line class="st13" x1="141" y1="254.1" x2="155.5" y2="255.9"/>
	<line class="st18" x1="203.1" y1="261.7" x2="341.2" y2="278.4"/>
	<line class="st13" x1="365" y1="281.2" x2="379.6" y2="283"/>
	<line class="st13" x1="137.3" y1="267.1" x2="150.9" y2="272.5"/>
	<line class="st19" x1="195.7" y1="290.1" x2="325.6" y2="341.2"/>
	<line class="st13" x1="348" y1="350.1" x2="361.6" y2="355.4"/>
	<line class="st13" x1="128.9" y1="279.8" x2="140.4" y2="288.8"/>
	<line class="st20" x1="178.1" y1="318.5" x2="287.4" y2="404.5"/>
	<line class="st13" x1="306.2" y1="419.3" x2="317.7" y2="428.3"/>
	<line class="st13" x1="120.8" y1="289.1" x2="129.7" y2="300.7"/>
	<line class="st21" x1="158.3" y1="338.5" x2="241.2" y2="448"/>
	<line class="st13" x1="255.5" y1="466.9" x2="264.4" y2="478.5"/>
</g>
<g id="flex" class="st0">
	<rect x="169.2" y="230.6" class="st3" width="160.6" height="39.5"/>
	<path class="st3" d="M151.9,155.9h-18.7c-5.9,0-10.8,5.8-10.8,13v163c0,7.2,4.8,13,10.8,13h18.7c5.9,0,10.8-5.8,10.8-13v-163
		C162.6,161.7,157.8,155.9,151.9,155.9z"/>
	<path class="st3" d="M365.9,155.9h-18.7c-5.9,0-10.8,5.8-10.8,13v163c0,7.2,4.8,13,10.8,13h18.7c5.9,0,10.8-5.8,10.8-13v-163
		C376.7,161.7,371.9,155.9,365.9,155.9z"/>
	<path class="st3" d="M54,250.4c0,10.9,8.9,19.8,19.8,19.8v-39.5C62.9,230.6,54,239.5,54,250.4z"/>
	<path class="st3" d="M445,250.4c0-10.9-8.9-19.8-19.8-19.8v39.5C436.1,270.2,445,261.3,445,250.4z"/>
	<path class="st3" d="M91.2,184.3c-5.9,0-10.8,5.8-10.8,13v106.3c0,7.2,4.8,13,10.8,13h24.6V184.3H91.2z"/>
	<path class="st3" d="M407.9,316.5c5.9,0,10.8-5.8,10.8-13V197.3c0-7.2-4.8-13-10.8-13h-24.6v132.2H407.9z"/>
</g>
<g id="be_bold" class="st0">
	<path class="st3" d="M448.2,208.5v11c0,4.4-2.9,8.3-7.1,9.6c-5.2,1.7-11.4,5.9-11.8,16.3c-0.7,18.1-1.2,86.8-48.1,88.6
		c-44.3,1.7-99.3,0.4-111.1-53c-1.5-6.7-2.4-20.3-5.7-31.7c-1.5-5.1-5.3-9.1-10.3-10.7c-2.9-0.9-5.6-0.9-8-0.3
		c-5.6,1.3-9.9,5.6-11.5,11.1c-3.3,11.4-4.2,25-5.7,31.7c-11.8,53.5-66.8,54.7-111.1,53c-46.9-1.8-47.3-70.5-48.1-88.6
		c-0.4-10.4-6.6-14.6-11.8-16.3c-4.2-1.3-7-5.2-7-9.6v-11c68.3-27.1,141.2-15.2,176.7-6.4c14.4,3.6,29.5,3.6,43.9,0
		C307,193.3,379.8,181.4,448.2,208.5z M100.9,267.9L100.9,267.9c1.4,1.4,3.7,1.4,5.1,0l40.7-40.7c1.4-1.4,1.4-3.7,0-5.1
		c-1.4-1.4-3.7-1.4-5.1,0l-40.7,40.7C99.5,264.2,99.5,266.5,100.9,267.9z M91.1,247.8L91.1,247.8c1.2,1.2,3.1,1.2,4.3,0l27.5-27.5
		c1.2-1.2,1.2-3.1,0-4.3c-1.2-1.2-3.1-1.2-4.3,0l-27.5,27.5C89.9,244.7,89.9,246.7,91.1,247.8z M301.2,267.9L301.2,267.9
		c1.4,1.4,3.7,1.4,5.1,0l40.7-40.7c1.4-1.4,1.4-3.7,0-5.1c-1.4-1.4-3.7-1.4-5.1,0l-40.7,40.7C299.8,264.2,299.8,266.5,301.2,267.9z
		 M291.3,247.8L291.3,247.8c1.2,1.2,3.1,1.2,4.3,0l27.5-27.5c1.2-1.2,1.2-3.1,0-4.3c-1.2-1.2-3.1-1.2-4.3,0l-27.5,27.5
		C290.1,244.7,290.1,246.7,291.3,247.8z"/>
</g>
</svg>
